PathFileType	4	(X/Y/Z)	1_coords_data.trc
DataRate	CameraRate	NumFrames	NumMarkers	Units	OrigDataRate	OrigDataStartFrame	OrigNumFrames
30.0	30.0	7	21	m	30.0	51	61
Frame#	Time	THUMB_TIP	THUMB_IP	THUMB_MCP	THUMB_CMC	INDEX_TIP	INDEX_DIP	INDEX_PIP	INDEX_MCP	MIDDLE_TIP	MIDDLE_DIP	MIDDLE_PIP	MIDDLE_MCP	RING_TIP	RING_DIP	RING_PIP	RING_MCP	PINKY_TIP	PINKY_DIP	PINKY_PIP	PINKY_MCP	WRIST
X1	Y1	Z1	X2	Y2	Z2	X3	Y3	Z3	X4	Y4	Z4	X5	Y5	Z5	X6	Y6	Z6	X7	Y7	Z7	X8	Y8	Z8	X9	Y9	Z9	X10	Y10	Z10	X11	Y11	Z11	X12	Y12	Z12	X13	Y13	Z13	X14	Y14	Z14	X15	Y15	Z15	X16	Y16	Z16	X17	Y17	Z17	X18	Y18	Z18	X19	Y19	Z19	X20	Y20	Z20	X21	Y21	Z21
49	1.6666666666666594	0.4724941384910748	-0.0242016144724454	-0.17081004309251974	0.4771585065815796	-0.02645926194170567	-0.14842373705019057	0.4746565166742475	-0.03495207525658228	-0.11858362698835828	0.47847705566369625	-0.0306674498666083	-0.07434636365643754	0.5098819020114806	-0.016796415833674416	-0.10348970327072826	0.5265960575254341	-0.011008908161681319	-0.10738094476953086	0.5340055208169566	0.009430115028466801	-0.12000457411152943	0.4917376712104432	0.01422045877173983	-0.12203375879076683	0.5078369889683347	-0.01813893258972088	-0.08528476793678397	0.5240511246867007	-0.01011634163857733	-0.08614490591236801	0.5375829049976076	0.013533532114955449	-0.09648821017451326	0.4968623131599629	0.030942483391476205	-0.10239665640374052	0.5037784732064907	-0.007041117307742706	-0.07190099366665026	0.5205540861017458	-0.0005607578364201782	-0.0706425211357643	0.5343541937495284	0.01966115137751212	-0.07520447199620706	0.5004725703985273	0.04064642516588035	-0.08201437046300697	0.5022272601196138	-0.007514214005642672	-0.05591863307906708	0.5183837581350343	-0.0026171951975028085	-0.05309254414372944	0.528975329932057	0.015483208418735517	-0.054095547033945035	0.5019641139667872	0.03892609245554324	-0.058754822848312016	0.4622830810018609	-0.023011742144276925	-0.051989820119430985
50	1.6999999999999926	0.4721687586865082	-0.023883304463674038	-0.1708598134009665	0.47722994038597744	-0.026302170296623184	-0.14857678111433298	0.4745660866183875	-0.034783054376105516	-0.11874729086834862	0.4782777882262474	-0.03068614895660937	-0.07448298654581453	0.5144749130892765	-0.017488333159416336	-0.10490547724305932	0.530338404360171	-0.01010457256518571	-0.10957770628125318	0.5353904040901812	0.0110355733491172	-0.122210257981126	0.49289186694371034	0.013743716042333487	-0.12179026088206796	0.5132957365453621	-0.018587166204924288	-0.08657898639166428	0.5286984799077391	-0.009115167763331322	-0.08759719188919879	0.5399400621112613	0.01567124421618582	-0.0980216899942924	0.4979799853765046	0.03045550180633072	-0.10213576448578798	0.5089503617889684	-0.007850574695076218	-0.07331239702373682	0.5251471263309909	-4.169235303186358e-05	-0.07201386903467	0.5371542019009223	0.021328650806881955	-0.07640915611124255	0.5016931160517855	0.0399689565242588	-0.08186545771240683	0.506966030629121	-0.008429286421450133	-0.05659873467688814	0.5226993849732883	-0.002372068454206233	-0.0536370338854224	0.5319047981004622	0.016472230486493822	-0.054619268883571936	0.5033008930234069	0.038047812195307285	-0.05876587463636784	0.46228308100186094	-0.023011742144276925	-0.051989820119430985
51	1.7333333333333258	0.4717447649689189	-0.02343946794356444	-0.17088220256321757	0.4773392847711365	-0.02611023870678253	-0.14875601148312123	0.4744715319928191	-0.03458565505221367	-0.11894387784974891	0.4780193975030321	-0.03075021052545146	-0.07464272644706438	0.5203071402173358	-0.017925519581110994	-0.10758560520087534	0.5349894571945853	-0.008702255646992452	-0.11281637671004718	0.5369485267229384	0.013147785888888208	-0.1250943066847362	0.49451692617792276	0.012959230528275634	-0.1214666606071515	0.520036668199958	-0.018180613534578338	-0.08911717618821258	0.5345581110653077	-0.007385245931752382	-0.08988381523511735	0.5428881184575242	0.018567359185018395	-0.1002028662815353	0.499620889145175	0.02958273740737838	-0.10186305640647764	0.5156840393013626	-0.007920827102568695	-0.07580559867200332	0.5312218768794619	0.0010568646869905107	-0.07408030057361914	0.540972326488004	0.0236211148325135	-0.07807571379399414	0.5036596257202188	0.03875602644251008	-0.0817387243005746	0.513409687967922	-0.008728315351937188	-0.057455632212769614	0.5286686812506176	-0.001687078297305189	-0.05420231010465837	0.5360958171095306	0.017926197699678292	-0.055186726987589196	0.5054272914786259	0.03655909471924901	-0.0588116594400101	0.46228308100186094	-0.023011742144276925	-0.051989820119430985
53	1.7666666666666675	0.47102063313613945	-0.022957235592265368	-0.17091863134547503	0.47730339933473526	-0.025859359303091134	-0.14900734368680818	0.4742458812732281	-0.03429564274173502	-0.11920296976205647	0.4776800314564058	-0.030773504036719523	-0.07486685410605876	0.5290245806638342	-0.018313898668087636	-0.11102260203390901	0.5408275447186132	-0.006117311343595611	-0.1173418818312939	0.5378163421209714	0.016063017896812193	-0.12878633405510387	0.4961077082861435	0.012174878515836873	-0.12111115784954612	0.5297908308573294	-0.017544586482000857	-0.09257252134417393	0.5423070639551212	-0.004469403986886555	-0.0931918046082808	0.5454956644823687	0.022740877354791134	-0.10313378459138178	0.5012457005861461	0.028702913064043045	-0.10153918546163154	0.5251578821481726	-0.007928737670507169	-0.07931833399686627	0.5391236541082729	0.0032714131088937837	-0.07719375496158332	0.5446977995249872	0.02731224110871211	-0.08053253781712777	0.5055817900834968	0.03748514701387129	-0.08161449198344684	0.522273220994243	-0.009021198542031206	-0.05895424236400204	0.5363155172784388	6.886325878496802e-05	-0.05532316930990344	0.5405266696562473	0.020616337692459297	-0.05626099074726576	0.50754019231749	0.034954685903997196	-0.058941948476203154	0.46228308100186094	-0.023011742144276925	-0.051989820119430985
54	1.8000000000000007	0.4703479231203809	-0.02233642905501987	-0.17093944071281852	0.4773066687911008	-0.02553578973809012	-0.14927518559269348	0.4740001373997865	-0.03394740403909835	-0.11949043118696889	0.47728787414146	-0.03080753790945312	-0.07511451398173974	0.5404990418761377	-0.017363672807020225	-0.11637030078601351	0.5471318695964156	-0.0019769993947258424	-0.12324459185757208	0.5378505820625966	0.019386622748021498	-0.13270308981742251	0.4977978059436604	0.011301673854375194	-0.12070122243965564	0.5424007336581838	-0.015352890527919993	-0.09794119451599859	0.5515441134988595	0.00027888330514724835	-0.09772613191821855	0.5473960842947359	0.027769824105538077	-0.10646979119972921	0.5030291394110755	0.027635319391541735	-0.10120632929978501	0.5373506947870416	-0.006613355814729105	-0.08461315363884381	0.5485423376286731	0.007144212888509305	-0.08137642166337244	0.5480060145092284	0.0319590835655813	-0.08340485203973402	0.507809617347527	0.03588012272447161	-0.0815085553505992	0.5337988907434381	-0.008245401261851582	-0.06100519095872414	0.5455482509774606	0.003410001481088165	-0.05663436483646245	0.5449584323353351	0.024379931379422404	-0.05748652270232235	0.509963312423134	0.03295542832932474	-0.05912538980885684	0.4622830810018609	-0.023011742144276925	-0.051989820119430985
55	1.833333333333334	0.46979947040025605	-0.021566968295144373	-0.17094775204400514	0.47736773409110944	-0.02513368819351114	-0.14954681996448332	0.47374353753348664	-0.03353987361578714	-0.11979751331780619	0.4768488481607775	-0.03085155412765639	-0.07537882373517923	0.5548666211829829	-0.012487434362591254	-0.125128711418531	0.5530577096489192	0.004609434118862943	-0.13082300041627182	0.536813097630759	0.02292719111342645	-0.13653108171102923	0.4995195418647035	0.010372335378851516	-0.12024604594784716	0.5602531228499363	-0.009048908873514061	-0.10708281256528229	0.562364808477619	0.008706066005941704	-0.10420155401393094	0.5480803696603712	0.03344163339941697	-0.1099908599653513	0.5049141183476369	0.026386677703484462	-0.10087766794859365	0.55444811617243	-0.0018813003926575478	-0.09304237871417032	0.5596121430938658	0.014283855258976796	-0.08695792568097771	0.5502559856876953	0.03735809120311884	-0.08648682783017259	0.5102902197946078	0.0339203586895076	-0.08142319417993849	0.5503996648637373	-0.005099425179002526	-0.0640885919373958	0.556482815365736	0.009736454027463592	-0.058097601356433604	0.5486580582070922	0.02920789632485865	-0.05876702593580574	0.5126200916096717	0.030546018727256596	-0.05936522570128	0.4622830810018609	-0.023011742144276925	-0.051989820119430985
56	1.8666666666666674	0.4694466561744704	-0.020638928888449204	-0.17095159967379125	0.4775040896878767	-0.024647861075553057	-0.14980907787774617	0.47348453957594233	-0.03307238871557383	-0.12011580337087885	0.47636808049028095	-0.03090494301752167	-0.07565371422808964	0.5678386224592612	0.0001294645896466884	-0.13815386968870702	0.5565764840245375	0.014214001016642275	-0.13982422040450176	0.5346181622621121	0.02645442415518018	-0.13994245647065112	0.501208325148121	0.009422216841613262	-0.11976021695061134	0.5833341384465648	0.01253344764960651	-0.12137104086682049	0.5719945281298383	0.024101964546062837	-0.11327272902538132	0.5471576964431564	0.039350872556566885	-0.1133829390731228	0.5068462134661008	0.024966144700858117	-0.10056842130194787	0.578332234006206	0.015797939068748934	-0.10443166843296325	0.5702041867464919	0.027857283273302502	-0.09377769898022159	0.5509047939751226	0.04298774504064751	-0.08944381569114535	0.5129657148127882	0.03158675676868106	-0.08135897971651862	0.5772303897363081	0.00979169922340839	-0.06694342138620957	0.5674528740628766	0.02179255354179832	-0.05963728130511459	0.5508298496979621	0.03461438686666296	-0.05993337276539279	0.5154290198893308	0.027715716914741395	-0.05966309003420356	0.4622830810018609	-0.023011742144276925	-0.051989820119430985
